<svg xmlns="http://www.w3.org/2000/svg" height="512" width="512.0001831054688"><rect id="backgroundrect" width="100%" height="100%" x="0" y="0" fill="none" stroke="none"/><g class="currentLayer" style=""><title>Layer 1</title><path d="m307.394531 115.46875h85.953125v61.378906h-85.953125zm0 0" id="svg_1" class="" fill-opacity="1" fill="#ff5b24"/><path d="m464.71875 47.28125c-63.046875-63.042969-165.632812-63.042969-228.683594 0-59.472656 59.472656-62.847656 154.121094-10.121094 217.585938l-21.496093 21.5-.574219-.574219c-14.65625-14.65625-37.722656-15.707031-53.648438-2.4375l-114.289062 95.195312 97.546875 97.542969 95.191406-114.289062c13.269531-15.925782 12.21875-38.992188-2.4375-53.648438l-.574219-.574219 21.5-21.496093c29.820313 24.777343 66.53125 37.167968 103.238282 37.167968 41.40625 0 82.824218-15.765625 114.347656-47.289062 63.042969-63.050782 63.042969-165.636719 0-228.683594zm-41.363281 132.890625c0 14.71875-11.972657 26.683594-26.683594 26.683594h-31.296875v14.921875h6.550781c8.292969 0 15.003907 6.71875 15.003907 15 0 8.292968-6.710938 15.003906-15.003907 15.003906h-43.105469c-8.28125 0-15.003906-6.710938-15.003906-15.003906 0-8.28125 6.722656-15 15.003906-15h6.550782v-14.921875h-31.296875c-14.710938 0-26.683594-11.964844-26.683594-26.683594v-68.023437c0-14.710938 11.972656-26.683594 26.683594-26.683594h92.59375c14.714843 0 26.683593 11.972656 26.683593 26.683594v68.023437zm0 0" id="svg_2" class="" fill-opacity="1" fill="#ff5b24"/><path d="m.0742188 438.289062c-.8984378 19.746094 6.6015622 39.085938 20.5781252 53.058594 13.222656 13.226563 31.25 20.652344 49.878906 20.652344 1.058594 0 2.117188-.023438 3.179688-.070312 14.234374-.648438 27.863281-5.625 39.101562-14.042969l-98.699219-98.699219c-8.417969 11.238281-13.394531 24.867188-14.0390622 39.101562zm0 0" id="svg_3" class="" fill-opacity="1" fill="#ff5b24"/></g></svg>